{
  "accessors": [
    {
      "bufferView": 2,
      "componentType": 5126,
      "count": 419,
      "max": [
        1.5391789674758911,
        1.6146583557128906,
        3.89652681350708
      ],
      "min": [
        -1.5391792058944702,
        -1.614659309387207,
        3.5762786865234375e-07
      ],
      "type": "VEC3"
    },
    {
      "bufferView": 2,
      "byteOffset": 5028,
      "componentType": 5126,
      "count": 419,
      "max": [
        0.9993714690208435,
        0.9993714094161987,
        1.0
      ],
      "min": [
        -0.9993714094161987,
        -0.9993714094161987,
        -1.0
      ],
      "type": "VEC3"
    },
    {
      "bufferView": 1,
      "componentType": 5126,
      "count": 419,
      "max": [
        0.9383928179740906,
        0.980404794216156
      ],
      "min": [
        0.013598591089248657,
        0.018767554312944412
      ],
      "type": "VEC2"
    },
    {
      "bufferView": 0,
      "componentType": 5125,
      "count": 960,
      "type": "SCALAR"
    },
    {
      "bufferView": 2,
      "byteOffset": 10056,
      "componentType": 5126,
      "count": 348,
      "max": [
        0.9999999403953552,
        1.0,
        0.5541112422943115
      ],
      "min": [
        -1.0,
        -1.0,
        -0.5541097521781921
      ],
      "type": "VEC3"
    },
    {
      "bufferView": 2,
      "byteOffset": 14232,
      "componentType": 5126,
      "count": 348,
      "max": [
        0.9659258723258972,
        0.9659258723258972,
        1.0
      ],
      "min": [
        -0.9659259915351868,
        -0.9659258723258972,
        -1.0
      ],
      "type": "VEC3"
    },
    {
      "bufferView": 1,
      "byteOffset": 3352,
      "componentType": 5126,
      "count": 348,
      "max": [
        0.9998974800109863,
        0.6463690400123596
      ],
      "min": [
        0.00010257959365844727,
        0.005528248846530914
      ],
      "type": "VEC2"
    },
    {
      "bufferView": 0,
      "byteOffset": 3840,
      "componentType": 5125,
      "count": 564,
      "type": "SCALAR"
    },
    {
      "bufferView": 2,
      "byteOffset": 18408,
      "componentType": 5126,
      "count": 348,
      "max": [
        0.9999999403953552,
        1.0,
        0.5541112422943115
      ],
      "min": [
        -1.0,
        -1.0,
        -0.5541097521781921
      ],
      "type": "VEC3"
    },
    {
      "bufferView": 2,
      "byteOffset": 22584,
      "componentType": 5126,
      "count": 348,
      "max": [
        0.9659258723258972,
        0.9659258723258972,
        1.0
      ],
      "min": [
        -0.9659259915351868,
        -0.9659258723258972,
        -1.0
      ],
      "type": "VEC3"
    },
    {
      "bufferView": 1,
      "byteOffset": 6136,
      "componentType": 5126,
      "count": 348,
      "max": [
        0.9998974800109863,
        0.6463690400123596
      ],
      "min": [
        0.00010257959365844727,
        0.005528248846530914
      ],
      "type": "VEC2"
    },
    {
      "bufferView": 0,
      "byteOffset": 6096,
      "componentType": 5125,
      "count": 564,
      "type": "SCALAR"
    },
    {
      "bufferView": 2,
      "byteOffset": 26760,
      "componentType": 5126,
      "count": 358,
      "max": [
        0.14552471041679382,
        0.3123248517513275,
        0.3123248517513275
      ],
      "min": [
        -0.1455243080854416,
        -0.3123248517513275,
        -0.3123248219490051
      ],
      "type": "VEC3"
    },
    {
      "bufferView": 2,
      "byteOffset": 31056,
      "componentType": 5126,
      "count": 358,
      "max": [
        1.0,
        0.9659258127212524,
        0.9659259915351868
      ],
      "min": [
        -1.0,
        -0.9659258723258972,
        -0.965925931930542
      ],
      "type": "VEC3"
    },
    {
      "bufferView": 1,
      "byteOffset": 8920,
      "componentType": 5126,
      "count": 358,
      "max": [
        0.9998974800109863,
        0.6463690400123596
      ],
      "min": [
        0.00010257959365844727,
        0.005528248846530914
      ],
      "type": "VEC2"
    },
    {
      "bufferView": 0,
      "byteOffset": 8352,
      "componentType": 5125,
      "count": 564,
      "type": "SCALAR"
    },
    {
      "bufferView": 2,
      "byteOffset": 35352,
      "componentType": 5126,
      "count": 358,
      "max": [
        0.14552471041679382,
        0.3123248517513275,
        0.3123248517513275
      ],
      "min": [
        -0.1455243080854416,
        -0.3123248517513275,
        -0.3123248219490051
      ],
      "type": "VEC3"
    },
    {
      "bufferView": 2,
      "byteOffset": 39648,
      "componentType": 5126,
      "count": 358,
      "max": [
        1.0,
        0.9659258127212524,
        0.9659259915351868
      ],
      "min": [
        -1.0,
        -0.9659258723258972,
        -0.965925931930542
      ],
      "type": "VEC3"
    },
    {
      "bufferView": 1,
      "byteOffset": 11784,
      "componentType": 5126,
      "count": 358,
      "max": [
        0.9998974800109863,
        0.6463690400123596
      ],
      "min": [
        0.00010257959365844727,
        0.005528248846530914
      ],
      "type": "VEC2"
    },
    {
      "bufferView": 0,
      "byteOffset": 10608,
      "componentType": 5125,
      "count": 564,
      "type": "SCALAR"
    },
    {
      "bufferView": 2,
      "byteOffset": 43944,
      "componentType": 5126,
      "count": 832,
      "max": [
        0.6222010850906372,
        0.33324795961380005,
        0.15887326002120972
      ],
      "min": [
        -0.6222009658813477,
        -3.432476282119751,
        -0.15652863681316376
      ],
      "type": "VEC3"
    },
    {
      "bufferView": 2,
      "byteOffset": 53928,
      "componentType": 5126,
      "count": 832,
      "max": [
        1.0,
        1.0,
        1.0
      ],
      "min": [
        -1.0,
        -1.0,
        -1.0
      ],
      "type": "VEC3"
    },
    {
      "bufferView": 1,
      "byteOffset": 14648,
      "componentType": 5126,
      "count": 832,
      "max": [
        0.987127423286438,
        0.9865989089012146
      ],
      "min": [
        0.0042364224791526794,
        0.012179657816886902
      ],
      "type": "VEC2"
    },
    {
      "bufferView": 0,
      "byteOffset": 12864,
      "componentType": 5125,
      "count": 1698,
      "type": "SCALAR"
    },
    {
      "bufferView": 2,
      "byteOffset": 63912,
      "componentType": 5126,
      "count": 419,
      "max": [
        1.5391789674758911,
        1.6146583557128906,
        3.89652681350708
      ],
      "min": [
        -1.5391792058944702,
        -1.614659309387207,
        3.5762786865234375e-07
      ],
      "type": "VEC3"
    },
    {
      "bufferView": 2,
      "byteOffset": 68940,
      "componentType": 5126,
      "count": 419,
      "max": [
        0.9993714690208435,
        0.9993714094161987,
        1.0
      ],
      "min": [
        -0.9993714094161987,
        -0.9993714094161987,
        -1.0
      ],
      "type": "VEC3"
    },
    {
      "bufferView": 1,
      "byteOffset": 21304,
      "componentType": 5126,
      "count": 419,
      "max": [
        0.9383928179740906,
        0.980404794216156
      ],
      "min": [
        0.013598591089248657,
        0.018767554312944412
      ],
      "type": "VEC2"
    },
    {
      "bufferView": 0,
      "byteOffset": 19656,
      "componentType": 5125,
      "count": 960,
      "type": "SCALAR"
    },
    {
      "bufferView": 2,
      "byteOffset": 73968,
      "componentType": 5126,
      "count": 512,
      "max": [
        0.6272920370101929,
        0.8434518575668335,
        0.12248815596103668
      ],
      "min": [
        -0.6227079629898071,
        -0.9065481424331665,
        -0.2775118350982666
      ],
      "type": "VEC3"
    },
    {
      "bufferView": 2,
      "byteOffset": 80112,
      "componentType": 5126,
      "count": 512,
      "max": [
        1.0,
        1.0,
        1.0
      ],
      "min": [
        -1.0,
        -1.0,
        -1.0
      ],
      "type": "VEC3"
    },
    {
      "bufferView": 1,
      "byteOffset": 24656,
      "componentType": 5126,
      "count": 512,
      "max": [
        0.9893366098403931,
        0.8664136528968811
      ],
      "min": [
        0.010239256545901299,
        0.0046522002667188644
      ],
      "type": "VEC2"
    },
    {
      "bufferView": 0,
      "byteOffset": 23496,
      "componentType": 5125,
      "count": 1188,
      "type": "SCALAR"
    },
    {
      "bufferView": 2,
      "byteOffset": 86256,
      "componentType": 5126,
      "count": 1174,
      "max": [
        1.0,
        1.0000635385513306,
        1.3991444110870361
      ],
      "min": [
        -1.1601645946502686,
        -1.0000636577606201,
        -0.7217490077018738
      ],
      "type": "VEC3"
    },
    {
      "bufferView": 2,
      "byteOffset": 100344,
      "componentType": 5126,
      "count": 1174,
      "max": [
        1.0,
        0.9854188561439514,
        0.9999972581863403
      ],
      "min": [
        -1.0,
        -0.9896222352981567,
        -1.0
      ],
      "type": "VEC3"
    },
    {
      "bufferView": 1,
      "byteOffset": 28752,
      "componentType": 5126,
      "count": 1174,
      "max": [
        0.9748043417930603,
        0.8801972270011902
      ],
      "min": [
        0.012119520455598831,
        0.016160067170858383
      ],
      "type": "VEC2"
    },
    {
      "bufferView": 0,
      "byteOffset": 28248,
      "componentType": 5125,
      "count": 2472,
      "type": "SCALAR"
    }
  ],
  "asset": {
    "extras": {
      "author": "carpish (https://sketchfab.com/carpish)",
      "license": "CC-BY-4.0 (http://creativecommons.org/licenses/by/4.0/)",
      "source": "https://sketchfab.com/3d-models/doug-7571d1c6f44c4a7793d35364bd6cf515",
      "title": "Doug"
    },
    "generator": "Sketchfab-12.66.0",
    "version": "2.0"
  },
  "bufferViews": [
    {
      "buffer": 0,
      "byteLength": 38136,
      "name": "floatBufferViews",
      "target": 34963
    },
    {
      "buffer": 0,
      "byteLength": 38144,
      "byteOffset": 38136,
      "byteStride": 8,
      "name": "floatBufferViews",
      "target": 34962
    },
    {
      "buffer": 0,
      "byteLength": 114432,
      "byteOffset": 76280,
      "byteStride": 12,
      "name": "floatBufferViews",
      "target": 34962
    }
  ],
  "buffers": [
    {
      "byteLength": 190712,
      "uri": "scene.bin"
    }
  ],
  "images": [
    {
      "uri": "textures/mat-lamp_baseColor.png"
    },
    {
      "uri": "textures/mat-wheel_baseColor.png"
    },
    {
      "uri": "textures/mat-shovel_baseColor.png"
    },
    {
      "uri": "textures/mat-chassis_baseColor.png"
    },
    {
      "uri": "textures/mat-mainbody_baseColor.png"
    }
  ],
  "materials": [
    {
      "doubleSided": true,
      "name": "mat-lamp",
      "pbrMetallicRoughness": {
        "baseColorTexture": {
          "index": 0
        },
        "metallicFactor": 0.0,
        "roughnessFactor": 0.8211145618
      }
    },
    {
      "doubleSided": true,
      "name": "mat-wheel",
      "pbrMetallicRoughness": {
        "baseColorTexture": {
          "index": 1
        },
        "metallicFactor": 0.0,
        "roughnessFactor": 0.8211145618
      }
    },
    {
      "doubleSided": true,
      "name": "mat-shovel",
      "pbrMetallicRoughness": {
        "baseColorTexture": {
          "index": 2
        },
        "metallicFactor": 0.0,
        "roughnessFactor": 0.8211145618
      }
    },
    {
      "doubleSided": true,
      "name": "mat-chassis",
      "pbrMetallicRoughness": {
        "baseColorTexture": {
          "index": 3
        },
        "metallicFactor": 0.0,
        "roughnessFactor": 0.8211145618
      }
    },
    {
      "doubleSided": true,
      "name": "mat-mainbody",
      "pbrMetallicRoughness": {
        "baseColorTexture": {
          "index": 4
        },
        "metallicFactor": 0.0,
        "roughnessFactor": 0.8211145618
      }
    }
  ],
  "meshes": [
    {
      "name": "obj-light-1_mat-lamp_0",
      "primitives": [
        {
          "attributes": {
            "NORMAL": 1,
            "POSITION": 0,
            "TEXCOORD_0": 2
          },
          "indices": 3,
          "material": 0,
          "mode": 4
        }
      ]
    },
    {
      "name": "obj-wheel-1_mat-wheel_0",
      "primitives": [
        {
          "attributes": {
            "NORMAL": 5,
            "POSITION": 4,
            "TEXCOORD_0": 6
          },
          "indices": 7,
          "material": 1,
          "mode": 4
        }
      ]
    },
    {
      "name": "obj-wheel-4_mat-wheel_0",
      "primitives": [
        {
          "attributes": {
            "NORMAL": 9,
            "POSITION": 8,
            "TEXCOORD_0": 10
          },
          "indices": 11,
          "material": 1,
          "mode": 4
        }
      ]
    },
    {
      "name": "obj-wheel-2_mat-wheel_0",
      "primitives": [
        {
          "attributes": {
            "NORMAL": 13,
            "POSITION": 12,
            "TEXCOORD_0": 14
          },
          "indices": 15,
          "material": 1,
          "mode": 4
        }
      ]
    },
    {
      "name": "obj-wheel-3_mat-wheel_0",
      "primitives": [
        {
          "attributes": {
            "NORMAL": 17,
            "POSITION": 16,
            "TEXCOORD_0": 18
          },
          "indices": 19,
          "material": 1,
          "mode": 4
        }
      ]
    },
    {
      "name": "obj-wpn-shovel_mat-shovel_0",
      "primitives": [
        {
          "attributes": {
            "NORMAL": 21,
            "POSITION": 20,
            "TEXCOORD_0": 22
          },
          "indices": 23,
          "material": 2,
          "mode": 4
        }
      ]
    },
    {
      "name": "obj-light-2_mat-lamp_0",
      "primitives": [
        {
          "attributes": {
            "NORMAL": 25,
            "POSITION": 24,
            "TEXCOORD_0": 26
          },
          "indices": 27,
          "material": 0,
          "mode": 4
        }
      ]
    },
    {
      "name": "obj-chassis_mat-chassis_0",
      "primitives": [
        {
          "attributes": {
            "NORMAL": 29,
            "POSITION": 28,
            "TEXCOORD_0": 30
          },
          "indices": 31,
          "material": 3,
          "mode": 4
        }
      ]
    },
    {
      "name": "obj-mainbody_mat-mainbody_0",
      "primitives": [
        {
          "attributes": {
            "NORMAL": 33,
            "POSITION": 32,
            "TEXCOORD_0": 34
          },
          "indices": 35,
          "material": 4,
          "mode": 4
        }
      ]
    }
  ],
  "nodes": [
    {
      "children": [
        1
      ],
      "matrix": [
        1.0,
        0.0,
        0.0,
        0.0,
        0.0,
        2.220446049250313e-16,
        -1.0,
        0.0,
        0.0,
        1.0,
        2.220446049250313e-16,
        0.0,
        0.0,
        0.0,
        0.0,
        1.0
      ],
      "name": "Sketchfab_model"
    },
    {
      "children": [
        2
      ],
      "matrix": [
        1.0,
        0.0,
        0.0,
        0.0,
        0.0,
        0.0,
        1.0,
        0.0,
        0.0,
        -1.0,
        0.0,
        0.0,
        0.0,
        0.0,
        0.0,
        1.0
      ],
      "name": "flipper-prototype.fbx"
    },
    {
      "children": [
        3,
        5,
        7,
        9,
        11,
        13,
        15,
        17,
        19
      ],
      "name": "RootNode"
    },
    {
      "children": [
        4
      ],
      "matrix": [
        -13.961461713017616,
        -0.4406047845781137,
        -0.22617785746374036,
        0.0,
        -0.4952665942691585,
        12.420543575203888,
        6.3759321248362815,
        0.0,
        -1.1089588033022265e-06,
        6.928428529151626,
        -13.496826396258644,
        0.0,
        102.95113372802734,
        123.35348510742188,
        -92.28394317626953,
        1.0
      ],
      "name": "obj-light-1"
    },
    {
      "mesh": 0,
      "name": "obj-light-1_mat-lamp_0"
    },
    {
      "children": [
        6
      ],
      "matrix": [
        2.3579869995026777e-06,
        -31.2324848175048,
        -6.640267050164389e-13,
        0.0,
        9.804391653237067e-06,
        7.281754989736406e-14,
        31.232484817503348,
        0.0,
        -26.262722015379495,
        -1.982780349906023e-06,
        8.244301213236703e-06,
        0.0,
        108.95379638671875,
        -57.3669548034668,
        -109.49812316894531,
        1.0
      ],
      "name": "obj-wheel-1"
    },
    {
      "mesh": 1,
      "name": "obj-wheel-1_mat-wheel_0"
    },
    {
      "children": [
        8
      ],
      "matrix": [
        -5.08841765249796e-06,
        -31.232484817504453,
        -9.308004670725013e-07,
        0.0,
        2.357986845198822e-06,
        -9.30800851965265e-07,
        31.23248481750478,
        0.0,
        -26.262722015380437,
        4.278740460941196e-06,
        1.982780344074527e-06,
        0.0,
        108.95379638671875,
        -57.3669548034668,
        -22.600202560424805,
        1.0
      ],
      "name": "obj-wheel-4"
    },
    {
      "mesh": 2,
      "name": "obj-wheel-4_mat-wheel_0"
    },
    {
      "children": [
        10
      ],
      "matrix": [
        -99.99999999999885,
        1.2246469849340659e-14,
        1.5099579909783702e-05,
        0.0,
        1.5099579909783661e-05,
        7.549789993177569e-06,
        99.99999999999856,
        0.0,
        -1.127740100078761e-12,
        99.9999999999997,
        -7.549789970973109e-06,
        0.0,
        -47.93561935424805,
        -57.3669548034668,
        -22.600200653076172,
        1.0
      ],
      "name": "obj-wheel-2"
    },
    {
      "mesh": 3,
      "name": "obj-wheel-2_mat-wheel_0"
    },
    {
      "children": [
        12
      ],
      "matrix": [
        -99.99999999999885,
        1.2246469849340659e-14,
        1.5099579909783702e-05,
        0.0,
        1.5099579909783661e-05,
        7.549789993177569e-06,
        99.99999999999856,
        0.0,
        -1.127740100078761e-12,
        99.9999999999997,
        -7.549789970973109e-06,
        0.0,
        -47.93561935424805,
        -57.3669548034668,
        -109.49812316894531,
        1.0
      ],
      "name": "obj-wheel-3"
    },
    {
      "mesh": 4,
      "name": "obj-wheel-3_mat-wheel_0"
    },
    {
      "children": [
        14
      ],
      "matrix": [
        100.0,
        0.0,
        0.0,
        0.0,
        0.0,
        -1.629206793918314e-05,
        -99.99999999999868,
        0.0,
        0.0,
        99.99999999999868,
        -1.629206793918314e-05,
        0.0,
        29.970449447631836,
        2.238605260848999,
        -102.79269409179688,
        1.0
      ],
      "name": "obj-wpn-shovel"
    },
    {
      "mesh": 5,
      "name": "obj-wpn-shovel_mat-shovel_0"
    },
    {
      "children": [
        16
      ],
      "matrix": [
        -13.961461713017616,
        -0.4406047845781137,
        -0.22617785746374036,
        0.0,
        -0.4952665942691585,
        12.420543575203888,
        6.3759321248362815,
        0.0,
        -1.1089588033022265e-06,
        6.928428529151626,
        -13.496826396258644,
        0.0,
        -42.27400207519531,
        123.35348510742188,
        -92.28394317626953,
        1.0
      ],
      "name": "obj-light-2"
    },
    {
      "mesh": 6,
      "name": "obj-light-2_mat-lamp_0"
    },
    {
      "children": [
        18
      ],
      "matrix": [
        100.0,
        0.0,
        0.0,
        0.0,
        0.0,
        -1.629206793918314e-05,
        -99.99999999999868,
        0.0,
        0.0,
        99.99999999999868,
        -1.629206793918314e-05,
        0.0,
        30.279884338378906,
        -47.473915100097656,
        -69.3974380493164,
        1.0
      ],
      "name": "obj-chassis"
    },
    {
      "mesh": 7,
      "name": "obj-chassis_mat-chassis_0"
    },
    {
      "children": [
        20
      ],
      "matrix": [
        100.0,
        0.0,
        0.0,
        0.0,
        0.0,
        -1.629206793918314e-05,
        -99.99999999999868,
        0.0,
        0.0,
        99.99999999999868,
        -1.629206793918314e-05,
        0.0,
        30.509090423583984,
        31.865510940551758,
        -65.97173309326172,
        1.0
      ],
      "name": "obj-mainbody"
    },
    {
      "mesh": 8,
      "name": "obj-mainbody_mat-mainbody_0"
    }
  ],
  "samplers": [
    {
      "magFilter": 9729,
      "minFilter": 9987,
      "wrapS": 10497,
      "wrapT": 10497
    }
  ],
  "scene": 0,
  "scenes": [
    {
      "name": "Sketchfab_Scene",
      "nodes": [
        0
      ]
    }
  ],
  "textures": [
    {
      "sampler": 0,
      "source": 0
    },
    {
      "sampler": 0,
      "source": 1
    },
    {
      "sampler": 0,
      "source": 2
    },
    {
      "sampler": 0,
      "source": 3
    },
    {
      "sampler": 0,
      "source": 4
    }
  ]
}
